Coordinates
version=1
nRows=7
nColumns=63
inDegrees=yes

Units are S.I. units (second, meters, Newtons, ...)
If the header above contains a line with 'inDegrees', this indicates whether rotational values are in degrees (yes) or radians (no).

endheader
time	pelvis_tilt	pelvis_list	pelvis_rotation	pelvis_tx	pelvis_ty	pelvis_tz	hip_flexion_r	hip_adduction_r	hip_rotation_r	knee_angle_r	knee_angle_r_beta	ankle_angle_r	subtalar_angle_r	mtp_angle_r	hip_flexion_l	hip_adduction_l	hip_rotation_l	knee_angle_l	knee_angle_l_beta	ankle_angle_l	subtalar_angle_l	mtp_angle_l	L5_S1_Flex_Ext	L5_S1_Lat_Bending	L5_S1_axial_rotation	L4_L5_Flex_Ext	L4_L5_Lat_Bending	L4_L5_axial_rotation	L3_L4_Flex_Ext	L3_L4_Lat_Bending	L3_L4_axial_rotation	L2_L3_Flex_Ext	L2_L3_Lat_Bending	L2_L3_axial_rotation	L1_L2_Flex_Ext	L1_L2_Lat_Bending	L1_L2_axial_rotation	L1_T12_Flex_Ext	L1_T12_Lat_Bending	L1_T12_axial_rotation	Abs_r3	Abs_r2	Abs_r1	Abs_t1	Abs_t2	neck_flexion	neck_bending	neck_rotation	arm_flex_r	arm_add_r	arm_rot_r	elbow_flex_r	pro_sup_r	wrist_flex_r	wrist_dev_r	arm_flex_l	arm_add_l	arm_rot_l	elbow_flex_l	pro_sup_l	wrist_flex_l	wrist_dev_l
      2.42372881	      2.06638993	     -3.25051310	     86.70966996	      0.26019547	      1.04597324	      0.39286620	      5.60015622	      5.08654127	     12.58543986	      9.30900525	      0.16247279	     25.87661234	    -14.17658893	      0.00000000	      2.06545492	     -4.42365378	    -16.58564512	      8.20893209	      0.14327289	     27.99173216	      7.82583485	      0.00000000	     -0.09007223	      0.16471872	      1.18368219	     -0.16727313	      0.21907589	      1.25766232	     -0.14797966	      0.40049708	      1.25766232	     -0.10294355	      0.40049708	      1.03572191	     -0.08364107	      0.33589440	      0.96174178	     -0.05146727	      0.25514929	      0.88776164	     -0.64337692	      1.86333105	      6.58328522	      0.00000000	      0.00000000	     21.01004128	      1.86704099	     -9.35195103	     40.08890190	    -16.19233621	     -3.79480689	    109.96281703	     65.00874453	    -10.36576855	     14.60918921	      9.50255756	    -23.41547840	     18.90699222	     77.95427514	     88.43874891	     -6.76079987	     15.46660492
      2.44067797	      1.81784677	     -3.13148344	     86.88909173	      0.26127174	      1.04612660	      0.39135397	      4.61054358	      4.74750342	     12.73720596	      7.97432731	      0.13917827	     25.09694407	    -15.04781608	      0.00000000	      1.65392977	     -4.18772905	    -16.89904357	      7.69768878	      0.13435001	     27.53856188	      8.60798341	      0.00000000	     -0.07069655	      0.12035362	      0.86838933	     -0.13129057	      0.16007031	      0.92266367	     -0.11614737	      0.29262778	      0.92266367	     -0.08079909	      0.29262778	      0.75984067	     -0.06564882	      0.24542509	      0.70556633	     -0.04039601	      0.18642775	      0.65129200	     -0.50497841	      1.36146416	      4.82972096	      0.00000000	      0.00000000	     21.29886510	      3.27373683	     -9.38358884	     44.96392586	    -15.23047527	      2.53980599	    106.79032632	     72.03592030	     -8.08197536	     12.31853698	      6.76302093	    -23.72912395	     18.31640396	     75.49153236	     88.43329309	     -4.78100395	     16.66462906
      2.45762712	      1.53363409	     -2.74308882	     87.03959456	      0.26230877	      1.04636226	      0.38993432	      3.23626817	      4.31167349	     12.80916835	      6.47700444	      0.11304505	     24.30884249	    -15.47763923	      0.00000000	      0.84791188	     -3.84438375	    -17.07556113	      6.96211379	      0.12151181	     27.00389016	      9.20274868	      0.00000000	     -0.08827549	      0.06954003	      0.61445867	     -0.16393641	      0.09248824	      0.65286234	     -0.14502780	      0.16907962	      0.65286234	     -0.10089006	      0.16907962	      0.53765134	     -0.08197262	      0.14180602	      0.49924767	     -0.05044061	      0.10771750	      0.46084400	     -0.63054299	      0.78665070	      3.41743480	      0.00000000	      0.00000000	     21.43160935	      4.29462354	    -10.20894560	     49.58158445	    -13.71312854	      7.49846443	    103.25553248	     82.56993740	     -5.13912896	     11.08855339	      4.46712580	    -23.90719001	     18.05254900	     72.58195146	     88.29781459	     -4.10851252	     16.32548724
      2.47457627	      1.38962643	     -2.29525825	     87.27260708	      0.26278952	      1.04630059	      0.38860322	      1.77205051	      3.97944204	     12.77495778	      4.97510214	      0.08683191	     23.55994785	    -15.56888764	      0.00000000	     -0.03396787	     -3.59840731	    -16.94761577	      6.21268517	      0.10843181	     26.73131836	      9.54344503	      0.00000000	     -0.10431690	      0.04291453	      0.36808831	     -0.19372691	      0.05707633	      0.39109383	     -0.17138223	      0.10434239	      0.39109383	     -0.11922378	      0.10434239	      0.32207727	     -0.09686867	      0.08751131	      0.29907175	     -0.05960667	      0.06647461	      0.27606623	     -0.74512515	      0.48545777	      2.04719674	      0.00000000	      0.00000000	     21.08971361	      4.72871293	    -11.17966677	     53.96063538	    -12.34915400	     12.04166881	     99.14586068	     86.96237971	     -1.89422575	      9.23727290	      2.26678366	    -23.88642871	     17.73069607	     69.41721454	     88.12773506	     -4.29703411	     14.12073290
      2.49152542	      1.20405981	     -1.86854580	     87.65222237	      0.26306568	      1.04590110	      0.38762794	      0.42772168	      3.62356269	     12.76520434	      3.66662462	      0.06399467	     23.04317113	    -15.60949823	      0.00000000	     -0.84208616	     -3.32091346	    -16.54939948	      5.50009784	      0.09599482	     26.67266725	      9.87046065	      0.00000000	     -0.12050786	      0.01034295	      0.13070272	     -0.22379515	      0.01375613	      0.13887163	     -0.19798237	      0.02514785	      0.13887163	     -0.13772844	      0.02514785	      0.11436488	     -0.11190360	      0.02109135	      0.10619596	     -0.06885819	      0.01602123	      0.09802704	     -0.86077561	      0.11700155	      0.72692929	      0.00000000	      0.00000000	     20.59000188	      5.02714470	    -12.31582823	     57.78883907	    -11.12771215	     15.64567976	     95.10088493	     88.16183131	      1.05512952	      7.95388371	      0.22609769	    -23.95603769	     17.42708580	     66.53018599	     88.08692560	     -4.89333463	     11.25378404
      2.50847458	      0.99389774	     -1.53392237	     88.20507764	      0.26305880	      1.04523395	      0.38691437	     -0.68571536	      3.26757884	     12.70265140	      2.62957281	      0.04589470	     22.91495062	    -15.46484464	      0.00000000	     -1.49069576	     -3.03474597	    -15.84979494	      4.82844097	      0.08427219	     26.91999187	     10.13372030	      0.00000000	     -0.13076944	     -0.02487692	     -0.07949163	     -0.24285193	     -0.03308631	     -0.08445985	     -0.21484111	     -0.06048575	     -0.08445985	     -0.14945639	     -0.06048575	     -0.06955517	     -0.12143250	     -0.05072902	     -0.06458695	     -0.07472166	     -0.03853435	     -0.05961872	     -0.93407303	     -0.28141273	     -0.44210857	      0.00000000	      0.00000000	     20.06796564	      5.19194043	    -13.44519637	     60.80828444	    -10.31131824	     18.11364253	     91.73196735	     88.50217531	      3.20455563	      7.51809251	     -1.49279035	    -24.18973884	     17.46744477	     64.13110281	     88.20298167	     -5.88125263	      8.58699083
      2.52542373	      0.77971560	     -1.31618672	     88.59661889	      0.26315329	      1.04441961	      0.38627397	     -1.52174037	      2.93187899	     12.80159741	      1.90523865	      0.03325269	     23.22704113	    -15.17013930	      0.00000000	     -2.01784169	     -2.74979821	    -15.36071974	      4.15758967	      0.07256363	     27.32754863	     10.50378287	      0.00000000	     -0.13482990	     -0.06447321	     -0.17325798	     -0.25039261	     -0.08574938	     -0.18408661	     -0.22151204	     -0.15676017	     -0.18408661	     -0.15409709	     -0.15676017	     -0.15160074	     -0.12520305	     -0.13147378	     -0.14077211	     -0.07704181	     -0.09986901	     -0.12994349	     -0.96307650	     -0.72933390	     -0.96360893	      0.00000000	      0.00000000	     19.71185589	      5.28882363	    -14.96766703	     62.91257251	    -10.18589845	     19.46423008	     89.49192631	     88.55565437	      3.50793523	      8.10956182	     -2.87461484	    -24.60320124	     17.63345682	     62.80557930	     88.40282825	     -6.32363784	      7.89825327
